<?xml version="1.0" standalone="no"?>
<!DOCTYPE svg PUBLIC "-//W3C//DTD SVG 20010904//EN"
 "http://www.w3.org/TR/2001/REC-SVG-20010904/DTD/svg10.dtd">
<svg version="1.0" xmlns="http://www.w3.org/2000/svg"
 width="630.000000pt" height="630.000000pt" viewBox="0 0 630.000000 630.000000"
 preserveAspectRatio="xMidYMid meet">
<metadata>
Created by potrace 1.11, written by Peter Selinger 2001-2013
</metadata>
<g transform="translate(0.000000,630.000000) scale(0.100000,-0.100000)"
fill="#000000" stroke="none">
<path d="M2900 6184 c-620 -90 -1157 -479 -1438 -1041 -84 -168 -139 -338
-178 -553 -25 -138 -25 -458 0 -600 26 -146 76 -314 134 -450 74 -171 1738
-3425 1752 -3425 7 0 327 617 712 1370 1066 2089 1049 2054 1095 2195 78 234
109 449 100 680 -21 497 -215 940 -562 1286 -296 295 -670 480 -1085 539 -130
18 -401 18 -530 -1z m465 -770 c362 -63 679 -305 835 -637 249 -531 52 -1167
-456 -1465 -398 -235 -917 -200 -1277 87 -419 335 -553 910 -323 1386 160 331
466 563 826 629 104 19 287 19 395 0z"/>
</g>
</svg>
